{"title":"Dark Cove 2016 Movies HDRip XviD AAC New Source +Sample ~ ☻rDX☻","uid":15538052,"size":740105306,"categoryP":"video","categoryS":"movies","magnet":"?xt=urn:btih:b2e6df424b7f5ae35d069a3399ff350425fd5373&amp;dn=Dark+Cove+2016+Movies+HDRip+XviD+AAC+New+Source+%2BSample+%7E+%E2%98%BBrDX%E2%98%BB&amp;tr=udp%3A%2F%2Ftracker.leechers-paradise.org%3A6969&amp;tr=udp%3A%2F%2Fzer0day.ch%3A1337&amp;tr=udp%3A%2F%2Fopen.demonii.com%3A1337&amp;tr=udp%3A%2F%2Ftracker.coppersurfer.tk%3A6969&amp;tr=udp%3A%2F%2Fexodus.desync.com%3A6969","seeders":8,"leechers":1,"uploader":"basicssom","files":2,"time":1470900932,"description":"----------------------------------------------------------------\r\nDark Cove 2016 English Movies HDRip XviD AAC New Source with Sample ☻rDX☻\r\n\r\nSCREEN SHOTS &amp; POSTER:\r\n  \nhttp://postimage.co.nr/2016/8/rent/index.htm  \nhttp://postimage.co.nr/2016/8/rent/1.html  \nhttp://postimage.co.nr/2016/8/rent/2.html  \nhttp://postimage.co.nr/2016/8/rent/3.html  \nhttp://postimage.co.nr/2016/8/rent/4.html  \nhttp://postimage.co.nr/2016/8/rent/5.html  \nhttp://postimage.co.nr/2016/8/rent/6.html  \nhttp://postimage.co.nr/2016/8/rent/7.html  \nhttp://postimage.co.nr/2016/8/rent/8.html  \nhttp://postimage.co.nr/2016/8/rent/9.html  \nhttp://postimage.co.nr/2016/8/rent/10.html\r\n\r\nFormat                                   : Matroska\r\nFormat version                           : Version 4 / Version 2\r\nFile size                                : 699 MiB\r\nDuration                                 : 1 h 24 min\r\nOverall bit rate mode                    : Constant\r\nOverall bit rate                         : 1 162 kb/s\r\nMovie name                               : Dark Cover 2016 English Movies HDRip XviD AAC New Source ☻rDX☻\r\n\r\nVideo\r\nID                                       : 2\r\nFormat                                   : AVC\r\nFormat/Info                              : Advanced Video Codec\r\nFormat profile                           :   \r\nFormat settings, CABAC                   : Yes\r\nFormat settings, ReFrames                : 2 frames\r\nFormat settings, GOP                     : M=1, N=12\r\nCodec ID                                 : V_MPEG4/ISO/AVC\r\nDuration                                 : 1 h 24 min\r\nBit rate mode                            : Constant\r\nBit rate                                 : 779 kb/s\r\nWidth                                    : 720 pixels\r\nHeight                                   : 304 pixels\r\nDisplay aspect ratio                     : 2.35:1\r\nFrame rate mode                          : Constant\r\nFrame rate                               : 23.976 FPS\r\nColor space                              : YUV\r\nChroma subsampling                       : 4:2:0\r\nBit depth                                : 8 bits\r\nScan type                                : Progressive\r\nBits/(Pixel*Frame)                       : 0.148\r\nStream size                              : 454 MiB (65%)\r\nTitle                                    : ☻rDX☻\r\nDefault                                  : Yes\r\nForced                                   : No\r\n\r\nAudio\r\nID                                       : 1\r\nFormat                                   : AC-3\r\nFormat/Info                              : Audio Coding 3\r\nMode extension                           : CM (complete main)\r\nFormat settings, Endianness              : Big\r\nCodec ID                                 : A_AC3\r\nDuration                                 : 1 h 24 min\r\nBit rate mode                            : Constant\r\nBit rate                                 : 384 kb/s\r\nChannel(s)                               : 6 channels\r\nChannel positions                        : Front: L C R, Side: L R, LFE\r\nSampling rate                            : 48.0 kHz\r\nFrame rate                               : 31.250 FPS (1536 spf)\r\nCompression mode                         : Lossy\r\nStream size                              : 231 MiB (33%)\r\nTitle                                    : ☻rDX☻\r\nDefault                                  : Yes\r\nForced                                   : No\r\n\r\nIMDB \nhttp://www.imdb.com/title/tt2277834/","torrent":{"xt":"urn:btih:b2e6df424b7f5ae35d069a3399ff350425fd5373","amp;dn":"Dark+Cove+2016+Movies+HDRip+XviD+AAC+New+Source+%2BSample+%7E+%E2%98%BBrDX%E2%98%BB","amp;tr":["udp%3A%2F%2Ftracker.leechers-paradise.org%3A6969","udp%3A%2F%2Fzer0day.ch%3A1337","udp%3A%2F%2Fopen.demonii.com%3A1337","udp%3A%2F%2Ftracker.coppersurfer.tk%3A6969","udp%3A%2F%2Fexodus.desync.com%3A6969"],"infoHash":"b2e6df424b7f5ae35d069a3399ff350425fd5373","infoHashBuffer":{"type":"Buffer","data":[178,230,223,66,75,127,90,227,93,6,154,51,153,255,53,4,37,253,83,115]},"announce":[],"urlList":[]}}